# xmcd
#
# Track frame offsets: 
#        150
#        9640
#        22475
#        36320
#        45782
#        58585
#        68997
#        80425
#        90607
#        102220
#        114727
#        126590
#        135880
#        148187
#        159020
#        176220
#        189742
#        205115
#        214217
#        225827
#        236585
#        246260
#        256815
#        268050
#        280115
#
# Disc length: 3877 seconds
#
# Revision: 0
# Processed by: cddbd v1.5.2PL0 Copyright (c) Steve Scherf et al.
# Submitted via: ExactAudioCopy v0.99pb3
#
DISCID=660f2319
DTITLE=Various Artist - The Ace Blues Masters - Vol. 1 - Sing My Blues Tonigh
DTITLE=t
DYEAR=1998
DGENRE=Blues
TTITLE0=Floyd Dixon - That Moves Me (Things I Don't Like)
TTITLE1=Charles Brown - Black Night
TTITLE2=Charles Brown - Let's Just Be Friends
TTITLE3=Floyd Dixon - Way Down In Louisiana
TTITLE4=H-Bomb Ferguson - Nobody Knows I'm In Love With You
TTITLE5=Charles Brown and Amos Milburn - Educated Fool
TTITLE6=Charles Brown and Amos Milburn - I Wanna Go Home
TTITLE7=Floyd Dixon -  Wake Up And Live
TTITLE8=Amos Milburn - Darlin' How Long
TTITLE9=Charles Brown - Sing My Blues Tonight
TTITLE10=Charles Brown - Trouble Blues
TTITLE11=H-Bomb Ferguson - Josephine
TTITLE12=Floyd Dixon - Floyd's After Hours
TTITLE13=Charles Brown - Love's Like A River
TTITLE14=Charles Brown - Driftin' Blues
TTITLE15=Floyd Dixon - Never Know About A Woman
TTITLE16=Charles Brown - Merry Christmas Baby
TTITLE17=Charles Brown - Don't Cry
TTITLE18=Floyd Dixon - Me Quieres
TTITLE19=H-Bomb Ferguson - Baby Don't Go
TTITLE20=Charles Brown - Lost In A Dream
TTITLE21=Charles Brown - So Much To Remember You By
TTITLE22=Floyd Dixon - What Would You Be
TTITLE23=Charles Brown - Too Late To Cry Anymore
TTITLE24=Floyd Dixon - Baby Please Write Me
EXTD=
EXTT0=
EXTT1=
EXTT2=
EXTT3=
EXTT4=
EXTT5=
EXTT6=
EXTT7=
EXTT8=
EXTT9=
EXTT10=
EXTT11=
EXTT12=
EXTT13=
EXTT14=
EXTT15=
EXTT16=
EXTT17=
EXTT18=
EXTT19=
EXTT20=
EXTT21=
EXTT22=
EXTT23=
EXTT24=
PLAYORDER=
